<?xml version="1.0" encoding="UTF-8"?><svg id="Vrstva_1" xmlns="http://www.w3.org/2000/svg" viewBox="0 0 126.48 39.7"><path d="M3.19,10.74c.17.32.39.58.67.78.28.2.6.35.97.45.37.1.76.15,1.16.15.27,0,.56-.02.87-.07s.6-.13.87-.26c.27-.13.5-.31.68-.53.18-.23.27-.51.27-.86,0-.37-.12-.68-.36-.91-.24-.23-.55-.43-.94-.58-.39-.15-.82-.29-1.31-.41-.49-.12-.98-.25-1.49-.39-.51-.13-1.02-.29-1.51-.47-.49-.19-.93-.43-1.31-.73-.39-.3-.7-.67-.94-1.11-.24-.45-.36-.98-.36-1.62,0-.71.15-1.33.45-1.85.3-.52.7-.96,1.19-1.31.49-.35,1.04-.61,1.66-.77.62-.17,1.24-.25,1.85-.25.72,0,1.41.08,2.07.24.66.16,1.25.42,1.77.78.51.36.92.82,1.23,1.38.3.56.45,1.24.45,2.04h-2.93c-.03-.41-.11-.75-.26-1.03-.15-.27-.34-.48-.59-.64-.25-.15-.52-.26-.84-.33-.32-.06-.66-.1-1.03-.1-.24,0-.49.03-.73.08-.24.05-.47.14-.67.27-.2.13-.36.29-.49.48-.13.19-.19.44-.19.74,0,.27.05.49.15.66.1.17.31.32.61.47.3.14.72.28,1.25.43.53.14,1.23.32,2.09.54.26.05.61.15,1.07.28.46.14.91.35,1.36.65.45.3.84.69,1.17,1.19.33.5.49,1.13.49,1.91,0,.63-.12,1.22-.37,1.76-.24.54-.61,1.01-1.09,1.4-.48.39-1.08.7-1.79.92-.71.22-1.54.33-2.48.33-.76,0-1.5-.09-2.21-.28-.71-.19-1.34-.48-1.89-.88-.55-.4-.98-.91-1.3-1.53C.14,11.15-.01,10.41,0,9.56h2.93c0,.46.08.86.25,1.18"/><rect x="13.39" y=".33" width="3.03" height="13.82"/><path d="M24.57,6.58c.69,0,1.22-.15,1.56-.46.35-.31.52-.81.52-1.51s-.17-1.16-.52-1.46c-.35-.3-.87-.45-1.56-.45h-3.32v3.89h3.32ZM25.65.33c.62,0,1.17.1,1.67.3.5.2.92.47,1.27.82.35.35.62.75.81,1.21.19.46.28.95.28,1.48,0,.81-.17,1.52-.51,2.11-.34.59-.9,1.04-1.67,1.35v.04c.37.1.68.26.93.47.24.21.44.46.6.75.16.29.27.61.34.96.07.35.12.7.14,1.05.01.22.03.48.04.77.01.3.04.6.07.91.03.31.08.6.16.88.07.28.18.51.32.71h-3.03c-.17-.44-.27-.96-.31-1.57-.04-.61-.1-1.19-.17-1.74-.1-.72-.32-1.25-.66-1.59-.33-.34-.88-.5-1.64-.5h-3.03v5.4h-3.03V.33h7.43Z"/><polygon points="40.49 .33 40.49 5.63 34.91 5.63 34.91 .33 31.88 .33 31.88 14.15 34.91 14.15 34.91 8.19 40.49 8.19 40.49 14.15 43.52 14.15 43.52 .33 40.49 .33"/><polygon points="59.81 8.77 56.78 8.77 56.78 5.73 54.45 5.73 54.45 8.77 51.42 8.77 51.42 11.11 54.45 11.11 54.45 14.15 56.78 14.15 56.78 11.11 59.81 11.11 59.81 8.77"/><polygon points="50.33 .33 45.31 14.15 48.35 14.15 53.37 .33 50.33 .33"/><path d="M5.82,30.49c.49,0,.95-.04,1.39-.12.44-.08.82-.23,1.16-.45.33-.22.6-.51.79-.88.19-.37.29-.82.29-1.38,0-.88-.31-1.55-.93-1.99-.62-.44-1.52-.66-2.69-.66H1.31v5.49h4.51ZM5.82,23.89c.53,0,.98-.06,1.37-.18.39-.12.71-.29.96-.5.26-.21.45-.46.58-.74.13-.28.19-.58.19-.91,0-1.72-1.03-2.58-3.1-2.58H1.31v4.91h4.51ZM5.82,17.86c.58,0,1.13.06,1.67.16.53.11,1,.3,1.41.56s.73.61.97,1.04c.24.43.37.97.37,1.61,0,.36-.06.71-.17,1.05s-.28.65-.49.92c-.21.28-.46.51-.75.7-.29.19-.61.33-.97.4v.04c.89.12,1.59.48,2.12,1.09.53.61.79,1.36.79,2.26,0,.22-.02.46-.06.74-.04.28-.12.56-.23.85-.12.29-.28.57-.5.86-.22.28-.51.53-.88.74-.37.21-.82.38-1.35.52-.53.14-1.17.2-1.92.2H0v-13.74h5.82Z"/><path d="M13.73,26.94c.2.73.51,1.37.92,1.94.42.57.95,1.03,1.61,1.38.65.35,1.44.52,2.35.52s1.69-.17,2.34-.52c.65-.35,1.18-.81,1.6-1.38.42-.57.73-1.22.92-1.94.2-.73.3-1.46.3-2.2s-.1-1.5-.3-2.21c-.2-.72-.51-1.36-.92-1.93-.42-.57-.95-1.03-1.6-1.38-.65-.35-1.43-.52-2.34-.52s-1.7.17-2.35.52c-.65.35-1.19.81-1.61,1.38-.42.57-.73,1.22-.92,1.93-.2.72-.3,1.46-.3,2.21s.1,1.48.3,2.2M12.52,22.02c.27-.86.67-1.62,1.21-2.28.54-.66,1.22-1.19,2.03-1.58.82-.39,1.76-.59,2.84-.59s2.02.2,2.83.59c.81.39,1.48.92,2.02,1.58.54.66.94,1.42,1.21,2.28.27.86.4,1.76.4,2.71s-.13,1.85-.4,2.71c-.27.86-.67,1.62-1.21,2.27-.54.66-1.21,1.18-2.02,1.57-.81.39-1.75.59-2.83.59s-2.03-.2-2.84-.59c-.82-.39-1.49-.91-2.03-1.57-.54-.65-.94-1.41-1.21-2.27-.27-.86-.4-1.76-.4-2.71s.14-1.85.4-2.71"/><path d="M36.62,20.61c-.26-.42-.58-.77-.96-1.05-.38-.28-.8-.5-1.25-.65-.46-.15-.93-.22-1.44-.22-.91,0-1.7.17-2.35.52-.65.35-1.19.81-1.61,1.38-.42.57-.73,1.22-.92,1.93-.2.72-.3,1.46-.3,2.21s.1,1.48.3,2.2c.2.73.51,1.37.92,1.94.42.57.95,1.03,1.61,1.38.66.35,1.44.52,2.35.52.64,0,1.22-.12,1.73-.35.51-.23.96-.55,1.33-.94.37-.4.67-.86.91-1.39.23-.53.38-1.11.44-1.72h1.31c-.09.85-.29,1.61-.6,2.29-.31.68-.71,1.26-1.2,1.73-.49.47-1.06.84-1.72,1.1-.66.26-1.4.38-2.21.38-1.08,0-2.03-.2-2.84-.59-.82-.39-1.49-.91-2.03-1.57-.54-.65-.94-1.41-1.21-2.27-.27-.86-.4-1.76-.4-2.71s.13-1.85.4-2.71c.27-.86.67-1.62,1.21-2.28.54-.66,1.22-1.19,2.03-1.58.82-.39,1.76-.59,2.84-.59.66,0,1.29.1,1.92.29s1.19.48,1.7.86c.51.38.93.84,1.27,1.4.34.55.55,1.19.64,1.91h-1.31c-.12-.53-.31-1-.57-1.42"/><path d="M41.87,17.86v8.51c0,.8.09,1.47.27,2.03.18.56.44,1.01.79,1.37.35.35.77.61,1.27.77.5.16,1.07.24,1.69.24s1.21-.08,1.72-.24c.5-.16.92-.42,1.27-.77.35-.35.61-.81.79-1.37.18-.56.27-1.23.27-2.03v-8.51h1.31v8.8c0,.71-.1,1.38-.3,2.01-.2.63-.51,1.19-.94,1.66-.43.48-.98.85-1.66,1.13-.67.27-1.49.41-2.46.41s-1.76-.14-2.44-.41c-.68-.28-1.23-.65-1.66-1.13-.43-.47-.75-1.03-.94-1.66-.2-.64-.3-1.31-.3-2.01v-8.8h1.31Z"/><path d="M54.83,28.86c.23.47.55.85.95,1.14.4.28.88.48,1.44.61.55.12,1.14.18,1.77.18.36,0,.75-.05,1.18-.15.42-.1.82-.27,1.18-.49.37-.22.67-.51.92-.87.24-.35.37-.78.37-1.28,0-.38-.09-.72-.26-1-.17-.28-.4-.52-.67-.71s-.58-.35-.92-.47c-.33-.12-.66-.22-.98-.3l-3.06-.75c-.4-.1-.79-.23-1.17-.38-.38-.15-.71-.36-.99-.62-.28-.26-.51-.57-.68-.94-.17-.37-.26-.83-.26-1.37,0-.33.06-.73.19-1.17.13-.45.37-.87.72-1.27.35-.4.84-.73,1.45-1.01.62-.28,1.41-.41,2.37-.41.68,0,1.33.09,1.95.27.62.18,1.16.45,1.62.81.46.36.83.81,1.11,1.34.28.53.41,1.15.41,1.86h-1.31c-.03-.53-.14-.99-.36-1.38-.21-.39-.49-.72-.83-.98-.34-.26-.73-.46-1.18-.6-.44-.14-.91-.2-1.4-.2-.45,0-.88.05-1.3.14-.42.1-.78.25-1.1.46-.31.21-.57.49-.76.84-.19.35-.29.78-.29,1.29,0,.32.05.6.16.84.11.24.26.44.45.61.19.17.41.3.66.4.25.1.52.18.8.25l3.35.83c.49.13.95.29,1.38.47.43.19.81.42,1.14.69.33.28.58.61.77,1.01.19.4.28.88.28,1.44,0,.15-.02.36-.05.62-.03.26-.11.53-.23.82-.12.29-.3.58-.52.88-.23.3-.53.56-.92.8-.39.24-.88.43-1.45.58-.58.15-1.27.22-2.08.22s-1.56-.09-2.25-.28c-.69-.19-1.28-.47-1.77-.86-.49-.38-.86-.88-1.13-1.48-.26-.6-.38-1.33-.34-2.18h1.31c-.01.71.1,1.3.33,1.77"/><polygon points="66.03 17.86 66.03 31.61 75.62 31.61 75.62 30.49 67.34 30.49 67.34 25.06 75 25.06 75 23.95 67.34 23.95 67.34 18.98 75.52 18.98 75.52 17.86 66.03 17.86"/><path d="M86.91,30.49c.99,0,1.84-.11,2.55-.32.71-.21,1.3-.55,1.76-1.01.46-.46.8-1.06,1.02-1.79.22-.73.33-1.61.33-2.64s-.11-1.91-.33-2.64c-.22-.73-.56-1.33-1.02-1.79-.46-.46-1.05-.8-1.76-1.01-.71-.21-1.56-.32-2.55-.32h-2.79v11.51h2.79ZM87.57,17.86c2.09.05,3.67.64,4.73,1.76,1.06,1.12,1.59,2.83,1.59,5.11s-.53,3.99-1.59,5.11c-1.06,1.12-2.64,1.71-4.73,1.76h-4.76v-13.74h4.76Z"/><path d="M98.14,19.92c0,.28-.04.56-.11.84-.07.28-.18.53-.32.77-.14.24-.32.45-.53.63-.21.18-.47.31-.76.38v-.83c.17-.05.31-.14.42-.28.12-.13.21-.29.29-.47.08-.18.13-.36.16-.55.03-.19.04-.36.03-.51h-.81v-2.04h1.62v2.06Z"/><path d="M102.24,26.94c.2.73.51,1.37.92,1.94.42.57.95,1.03,1.61,1.38.65.35,1.44.52,2.35.52s1.69-.17,2.34-.52c.65-.35,1.18-.81,1.6-1.38.42-.57.73-1.22.92-1.94.2-.73.3-1.46.3-2.2s-.1-1.5-.3-2.21c-.2-.72-.51-1.36-.92-1.93-.42-.57-.95-1.03-1.6-1.38-.65-.35-1.43-.52-2.34-.52s-1.7.17-2.35.52c-.65.35-1.19.81-1.61,1.38-.42.57-.73,1.22-.92,1.93-.2.72-.3,1.46-.3,2.21s.1,1.48.3,2.2M101.03,22.02c.27-.86.67-1.62,1.21-2.28.54-.66,1.22-1.19,2.03-1.58.82-.39,1.76-.59,2.84-.59s2.02.2,2.83.59c.81.39,1.48.92,2.02,1.58.54.66.94,1.42,1.21,2.28.27.86.4,1.76.4,2.71s-.14,1.85-.4,2.71c-.27.86-.67,1.62-1.21,2.27-.54.66-1.21,1.18-2.02,1.57-.81.39-1.75.59-2.83.59s-2.03-.2-2.84-.59c-.82-.39-1.49-.91-2.03-1.57-.54-.65-.94-1.41-1.21-2.27-.27-.86-.4-1.76-.4-2.71s.14-1.85.4-2.71"/><path d="M121.84,24.39c.4,0,.78-.06,1.14-.18.36-.12.67-.3.94-.53.27-.23.48-.51.65-.84.16-.33.24-.7.24-1.13,0-.85-.24-1.51-.73-2-.49-.49-1.23-.73-2.24-.73h-4.89v5.41h4.89ZM121.94,17.86c.56,0,1.1.07,1.61.21.51.14.95.36,1.33.64.38.29.68.66.91,1.12.22.46.34.99.34,1.61,0,.87-.23,1.63-.67,2.27-.45.64-1.12,1.05-2,1.23v.04c.45.06.82.18,1.12.36.3.17.54.39.72.67.19.27.32.58.4.93.08.35.14.73.16,1.15.01.23.03.51.04.85.01.33.04.67.08,1.01.04.34.1.66.18.96.08.3.2.54.34.7h-1.45c-.08-.13-.14-.28-.18-.47-.05-.19-.08-.38-.1-.58-.02-.2-.04-.39-.05-.59-.01-.19-.03-.36-.04-.5-.03-.49-.07-.97-.13-1.45-.06-.48-.18-.91-.37-1.29-.19-.38-.46-.68-.81-.91-.35-.23-.84-.33-1.45-.31h-4.97v6.1h-1.31v-13.74h6.3Z"/><path d="M3.58,36.43c-.07-.47-.52-.83-1.04-.83-.94,0-1.29.8-1.29,1.63s.35,1.59,1.29,1.59c.64,0,1-.44,1.08-1.07h1.01c-.11,1.19-.92,1.94-2.08,1.94-1.47,0-2.33-1.1-2.33-2.47s.86-2.51,2.33-2.51c1.04,0,1.92.61,2.04,1.71h-1.01Z"/><polygon points="5.13 38.76 7.67 35.72 5.33 35.72 5.33 34.84 9.06 34.84 9.06 35.66 6.52 38.71 9.13 38.71 9.13 39.59 5.13 39.59 5.13 38.76"/><polygon points="9.84 34.84 13.38 34.84 13.38 35.72 10.88 35.72 10.88 36.73 13.18 36.73 13.18 37.55 10.88 37.55 10.88 38.71 13.44 38.71 13.44 39.59 9.84 39.59 9.84 34.84"/><path d="M17.4,36.43c-.07-.47-.52-.83-1.04-.83-.94,0-1.29.8-1.29,1.63s.35,1.59,1.29,1.59c.64,0,1-.44,1.08-1.07h1.01c-.11,1.19-.92,1.94-2.08,1.94-1.47,0-2.33-1.1-2.33-2.47s.86-2.51,2.33-2.51c1.04,0,1.92.61,2.04,1.71h-1.01Z"/><polygon points="19.26 34.84 20.3 34.84 20.3 36.66 22.22 36.66 22.22 34.84 23.26 34.84 23.26 39.59 22.22 39.59 22.22 37.54 20.3 37.54 20.3 39.59 19.26 39.59 19.26 34.84"/><path d="M26.22,34.84h2.56c.85,0,1.39.59,1.39,1.31,0,.56-.23.98-.75,1.19h0c.51.15.66.65.69,1.13.02.3.01.86.2,1.13h-1.04c-.13-.3-.11-.76-.17-1.14-.07-.5-.26-.72-.79-.72h-1.04v1.86h-1.04v-4.75ZM27.27,36.99h1.14c.46,0,.72-.2.72-.68s-.25-.66-.72-.66h-1.14v1.34Z"/><polygon points="31.12 34.84 34.66 34.84 34.66 35.72 32.16 35.72 32.16 36.73 34.46 36.73 34.46 37.55 32.16 37.55 32.16 38.71 34.71 38.71 34.71 39.59 31.12 39.59 31.12 34.84"/><path d="M35.52,34.84h2.14c1.18,0,1.64.75,1.64,1.52s-.46,1.52-1.64,1.52h-1.1v1.7h-1.04v-4.75ZM36.56,37.07h.81c.48,0,.92-.11.92-.71s-.43-.71-.92-.71h-.81v1.42Z"/><path d="M44.07,37.79c0,1.28-.76,1.91-2.02,1.91s-2.02-.62-2.02-1.91v-2.96h1.04v2.96c0,.52.13,1.03.98,1.03.74,0,.98-.33.98-1.03v-2.96h1.04v2.96Z"/><path d="M45.06,34.84h2.23c.9,0,1.51.29,1.51,1.18,0,.47-.23.79-.64.99.58.17.87.61.87,1.2,0,.97-.82,1.38-1.67,1.38h-2.3v-4.75ZM46.11,36.76h1.06c.37,0,.64-.17.64-.57,0-.45-.34-.55-.72-.55h-.98v1.11ZM46.11,38.78h1.12c.41,0,.77-.13.77-.63s-.31-.68-.75-.68h-1.13v1.31Z"/><polygon points="49.84 34.84 50.88 34.84 50.88 38.71 53.19 38.71 53.19 39.59 49.84 39.59 49.84 34.84"/><rect x="53.87" y="34.84" width="1.04" height="4.75"/><path d="M59.09,36.43c-.07-.47-.52-.83-1.04-.83-.94,0-1.29.8-1.29,1.63s.35,1.59,1.29,1.59c.64,0,1-.44,1.08-1.07h1.01c-.11,1.19-.92,1.94-2.08,1.94-1.47,0-2.33-1.1-2.33-2.47s.86-2.51,2.33-2.51c1.04,0,1.92.61,2.04,1.71h-1.01Z"/><path d="M62.49,35.91c.07-.23.18-.44.33-.61.14-.17.33-.31.55-.41.22-.1.47-.15.76-.15.22,0,.42.03.62.1s.37.17.52.29.27.28.36.47.13.39.13.62-.04.45-.12.62c-.08.17-.18.32-.3.46-.13.13-.27.25-.43.36-.16.11-.32.22-.48.32-.16.11-.32.22-.47.34-.15.12-.29.26-.41.43h2.24v.83h-3.48c0-.28.04-.52.12-.72.08-.2.19-.39.32-.55.14-.16.29-.31.48-.44.18-.14.38-.27.58-.41.1-.07.21-.15.33-.22.12-.07.22-.16.32-.25.1-.09.18-.19.24-.3s.1-.24.1-.39c0-.23-.07-.41-.2-.54-.13-.13-.3-.19-.51-.19-.14,0-.26.03-.36.1-.1.07-.18.15-.23.26s-.1.22-.13.35-.04.26-.04.38h-.92c0-.27.02-.52.09-.76Z"/><path d="M66.2,36.03c.09-.31.22-.57.38-.76.16-.19.34-.33.55-.41.21-.08.43-.12.67-.12s.46.04.67.12c.21.08.4.22.56.41.16.19.29.44.38.76.09.31.14.7.14,1.16s-.05.87-.14,1.19c-.09.32-.22.57-.38.76-.16.19-.35.33-.56.41-.21.08-.44.12-.67.12s-.46-.04-.67-.12c-.21-.08-.39-.22-.55-.41-.16-.19-.28-.44-.38-.76-.09-.32-.14-.72-.14-1.19s.05-.85.14-1.16ZM67.04,37.69c0,.19.04.38.08.56s.12.33.23.46c.1.13.25.19.45.19s.35-.06.46-.19c.11-.13.18-.28.23-.46s.08-.36.09-.56c0-.19.01-.36.01-.49,0-.08,0-.18,0-.29,0-.12-.01-.23-.03-.36-.02-.12-.04-.24-.07-.36s-.07-.23-.13-.32-.13-.17-.22-.23c-.09-.06-.2-.09-.33-.09s-.24.03-.33.09-.16.14-.22.23c-.06.09-.1.2-.13.32-.03.12-.05.24-.07.36s-.02.24-.02.36c0,.12,0,.21,0,.29,0,.14,0,.3.01.49Z"/><path d="M70.03,35.91c.07-.23.18-.44.33-.61.14-.17.33-.31.55-.41.22-.1.47-.15.76-.15.22,0,.42.03.62.1s.37.17.52.29.27.28.36.47.13.39.13.62-.04.45-.12.62c-.08.17-.18.32-.3.46-.13.13-.27.25-.43.36-.16.11-.32.22-.48.32-.16.11-.32.22-.47.34-.15.12-.29.26-.41.43h2.24v.83h-3.48c0-.28.04-.52.12-.72.08-.2.19-.39.32-.55.14-.16.29-.31.48-.44.18-.14.38-.27.58-.41.1-.07.21-.15.33-.22.12-.07.22-.16.32-.25.1-.09.18-.19.24-.3s.1-.24.1-.39c0-.23-.07-.41-.2-.54-.13-.13-.3-.19-.51-.19-.14,0-.26.03-.36.1-.1.07-.18.15-.23.26s-.1.22-.13.35-.04.26-.04.38h-.92c0-.27.02-.52.09-.76Z"/><path d="M74.89,35.64l-.19,1.08h.01c.13-.12.27-.21.42-.27.15-.06.32-.08.51-.08.23,0,.44.04.62.13.18.09.33.2.46.35.12.14.22.32.28.51s.1.41.1.63c0,.24-.05.47-.14.68-.09.21-.22.39-.38.55s-.35.27-.56.36c-.21.08-.44.12-.68.12-.23,0-.45-.03-.66-.09-.21-.06-.4-.15-.56-.28-.16-.13-.29-.28-.39-.47-.1-.19-.15-.41-.15-.65h.96c.02.22.1.39.24.52.14.13.32.19.54.19.13,0,.24-.03.34-.08.1-.05.19-.12.26-.2s.12-.18.16-.29c.04-.11.06-.22.06-.34s-.02-.24-.05-.35c-.04-.11-.09-.2-.16-.28-.07-.08-.16-.14-.26-.19-.1-.05-.21-.07-.35-.07-.17,0-.31.03-.42.09-.11.06-.21.16-.31.29h-.87l.47-2.62h2.65v.79h-1.96Z"/></svg>