<svg width="126" height="40" viewBox="0 0 126 40" fill="none" xmlns="http://www.w3.org/2000/svg">
<path d="M14.7716 21.2642L0.0297241 24.0162C0.0297241 25.9989 4.61729 33.5571 6.08613 34.8034L13.3473 39.5739C13.7735 39.852 14.2708 40 14.7791 40C15.2873 40 15.7846 39.852 16.2108 39.5739L24.0447 34.395C25.7034 33.3126 29.5165 21.783 29.5135 19.7853L14.7716 21.2642Z" fill="url(#paint0_linear_0_118)"/>
<path d="M12.5164 0.503662L1.78042 5.59318C1.24919 5.84439 0.799852 6.24198 0.48467 6.73971C0.169489 7.23744 0.00141426 7.81484 0 8.40478V10.8795L14.7716 16.0316L29.4957 10.8795V8.37198C29.4952 7.78911 29.3298 7.21839 29.0188 6.72639C28.7077 6.23438 28.2639 5.84136 27.739 5.59318L16.9793 0.500682C16.2812 0.170463 15.5191 -0.000514306 14.7475 1.16208e-06C13.9759 0.00051663 13.214 0.17251 12.5164 0.503662V0.503662Z" fill="#CF192B"/>
<path d="M0.00891131 8.30936V23.3513C0.0103862 25.6577 0.585228 27.9272 1.68124 29.9537C2.77725 31.9802 4.3597 33.6995 6.2849 34.9555L7.73001 35.8947C8.41797 36.3463 9.21477 36.6024 10.0359 36.6357C10.857 36.669 11.6717 36.4784 12.3937 36.0841C13.1157 35.6897 13.718 35.1063 14.1366 34.3958C14.5553 33.6853 14.7747 32.8742 14.7716 32.0485V32.0485V16.1866C14.7727 15.4438 14.5674 14.7153 14.179 14.0832C13.7905 13.4512 13.2343 12.9405 12.5728 12.6088L1.7567 7.20618C1.57195 7.10639 1.36418 7.05758 1.15456 7.06471C0.944931 7.07184 0.740929 7.13465 0.56332 7.24676C0.38571 7.35886 0.240838 7.51625 0.143452 7.70291C0.0460653 7.88956 -0.000358182 8.09881 0.00891131 8.30936Z" fill="url(#paint1_linear_0_118)"/>
<path d="M29.4957 8.29745V23.3394C29.4964 25.6456 28.9235 27.9155 27.829 29.9426C26.7345 31.9697 25.1531 33.6899 23.2286 34.9466L21.7864 35.8887C21.0995 36.334 20.3058 36.585 19.4889 36.6154C18.672 36.6458 17.862 36.4545 17.1441 36.0615C16.4263 35.6685 15.8271 35.0884 15.4096 34.3822C14.9921 33.6761 14.7717 32.8699 14.7715 32.0485V23.9208V14.9761C14.7713 14.5977 14.8761 14.2267 15.0743 13.9048C15.2724 13.583 15.5561 13.3231 15.8932 13.1544L27.7627 7.19129C27.9472 7.09505 28.1536 7.04917 28.3613 7.05826C28.569 7.06735 28.7707 7.13108 28.9461 7.24309C29.1216 7.35509 29.2647 7.51143 29.3612 7.69647C29.4576 7.8815 29.504 8.08874 29.4957 8.29745Z" fill="url(#paint2_linear_0_118)"/>
<path d="M21.9729 15.5429L18.3171 17.8059V29.4637L21.9195 27.3558C23.3454 26.4331 24.524 25.1727 25.3518 23.6854C26.1796 22.1981 26.6313 20.5293 26.6673 18.8256C26.8513 12.8952 21.9729 15.5429 21.9729 15.5429ZM20.7088 25.1912V19.0492C20.7088 19.0492 24.415 16.3658 24.418 20.0927C24.421 23.8197 20.7088 25.1912 20.7088 25.1912Z" fill="white"/>
<path d="M2.95203 14.708L11.6049 19.1803V22.2126L8.70873 20.7993L8.74731 29.7201L5.71168 28.0028L5.67311 19.4755L2.95203 18.0444V14.708Z" fill="white"/>
<path d="M38.6034 11.173H50.0674V13.4075H45.5919V22.2317H43.1029V13.4075H38.6034V11.173Z" fill="black"/>
<path d="M54.2674 11.173H58.309L62.991 22.242H60.3608L59.6447 20.5609H52.8524L52.1364 22.242H49.4683L54.2674 11.173ZM55.8165 13.4075L53.7682 18.3921H58.667L56.6772 13.4075H55.8165Z" fill="black"/>
<path d="M62.7913 11.173H65.6384L69.1636 17.0776H69.322L72.7268 11.173H75.5738L70.4099 19.4748V22.242H67.9622V19.4748L62.7913 11.173Z" fill="black"/>
<path d="M87.902 13.8745L85.9706 14.9952C85.566 14.3946 85.015 13.9083 84.3702 13.5825C83.7253 13.2567 83.0081 13.1024 82.287 13.1342C81.804 13.1101 81.3211 13.183 80.8665 13.3487C80.412 13.5144 79.9949 13.7696 79.6396 14.0993C78.9975 14.8103 78.6432 15.7369 78.6464 16.697C78.6496 17.6571 79.01 18.5813 79.6568 19.2879C80.0072 19.6213 80.4204 19.8808 80.8721 20.0513C81.3238 20.2218 81.8049 20.2998 82.287 20.2807C83.008 20.3119 83.725 20.1573 84.3697 19.8316C85.0144 19.5058 85.5656 19.0198 85.9706 18.4197L87.902 19.5405C86.7544 21.5167 84.8954 22.5037 82.3249 22.5014C80.7042 22.5635 79.1217 21.9976 77.9045 20.9206C76.757 19.8668 76.1832 18.4589 76.1832 16.6971C76.1832 14.9353 76.7639 13.5286 77.9252 12.477C79.1403 11.4122 80.7137 10.8531 82.3249 10.9135C84.8885 10.9135 86.7475 11.9005 87.902 13.8745Z" fill="black"/>
<path d="M89.6542 11.173H92.1433V15.3965H98.3572V11.173H100.846V22.242H98.3572V17.6345H92.1433V22.2386H89.6542V11.173Z" fill="black"/>
<path d="M102.836 11.173H112.82V13.4352H105.325V15.483H112.076V17.7418H105.325V19.9452H113.112V22.2455H102.836V11.173Z" fill="black"/>
<path d="M114.965 11.1729H121.454C122.656 11.1312 123.825 11.566 124.711 12.3836C125.132 12.7812 125.465 13.2644 125.686 13.8012C125.908 14.338 126.013 14.916 125.995 15.4968C126.034 16.2524 125.853 17.0033 125.475 17.6575C125.097 18.3117 124.537 18.841 123.864 19.1807L125.558 22.2212H122.848L121.571 19.7757H117.44V22.2385H114.951L114.965 11.1729ZM117.454 13.4559V17.4961H121.357C121.924 17.5239 122.481 17.3389 122.92 16.9773C123.119 16.7914 123.274 16.564 123.375 16.3112C123.476 16.0583 123.521 15.7862 123.506 15.5141C123.518 15.2371 123.473 14.9606 123.372 14.7026C123.271 14.4445 123.117 14.2107 122.92 14.0163C122.493 13.63 121.932 13.4287 121.357 13.4559H117.454Z" fill="black"/>
<path d="M39.2919 26.9948H40.8652C41.3092 26.9825 41.7417 27.138 42.077 27.4307C42.2341 27.5803 42.3592 27.7605 42.4447 27.9604C42.5302 28.1602 42.5743 28.3754 42.5743 28.5929C42.5743 28.8104 42.5302 29.0257 42.4447 29.2255C42.3592 29.4253 42.2341 29.6055 42.077 29.7552C41.7448 30.0467 41.3165 30.2033 40.8755 30.1945H39.2919V26.9948ZM39.7429 27.4065V29.7759H40.8342C41.1748 29.7929 41.5088 29.6778 41.7672 29.4542C41.9942 29.2242 42.1216 28.9134 42.1216 28.5895C42.1216 28.2655 41.9942 27.9547 41.7672 27.7247C41.51 27.4987 41.1755 27.382 40.8342 27.3995L39.7429 27.4065Z" fill="black"/>
<path d="M47.6025 26.9948H50.4117V27.4064H48.0535V28.3473H50.1707V28.759H48.0535V29.7759H50.4977V30.1945H47.6025V26.9948Z" fill="black"/>
<path d="M55.4379 26.9948H55.9336L57.1248 29.7621H57.4277L58.6257 26.9948H59.1284L57.71 30.1945H56.8493L55.4379 26.9948Z" fill="black"/>
<path d="M64.1168 26.9948H66.926V27.4064H64.5678V28.3473H66.685V28.759H64.5678V29.7759H67.0155V30.1945H64.1168V26.9948Z" fill="black"/>
<path d="M72.1071 26.9948H72.5581V29.7621H74.9404V30.1806H72.1071V26.9948Z" fill="black"/>
<path d="M82.762 27.3857C82.9207 27.5445 83.0465 27.7332 83.1324 27.9409C83.2183 28.1487 83.2625 28.3714 83.2625 28.5964C83.2625 28.8214 83.2183 29.0441 83.1324 29.2519C83.0465 29.4596 82.9207 29.6483 82.762 29.8071C82.4058 30.1066 81.9562 30.2707 81.4917 30.2707C81.0272 30.2707 80.5776 30.1066 80.2214 29.8071C80.0628 29.6483 79.9369 29.4596 79.851 29.2519C79.7651 29.0441 79.7209 28.8214 79.7209 28.5964C79.7209 28.3714 79.7651 28.1487 79.851 27.9409C79.9369 27.7332 80.0628 27.5445 80.2214 27.3857C80.5767 27.0843 81.0267 26.9189 81.4917 26.9189C81.9567 26.9189 82.4067 27.0843 82.762 27.3857V27.3857ZM80.1663 28.5964C80.1596 28.7702 80.1899 28.9434 80.2552 29.1045C80.3205 29.2656 80.4193 29.4107 80.545 29.5303C80.8112 29.7504 81.1452 29.8708 81.49 29.8708C81.8347 29.8708 82.1688 29.7504 82.435 29.5303C82.6758 29.2817 82.8105 28.9485 82.8105 28.6016C82.8105 28.2547 82.6758 27.9214 82.435 27.6728C82.1699 27.4502 81.8355 27.3282 81.49 27.3282C81.1445 27.3282 80.81 27.4502 80.545 27.6728C80.4205 27.7911 80.3223 27.9346 80.257 28.0938C80.1918 28.253 80.1608 28.4243 80.1663 28.5964V28.5964Z" fill="black"/>
<path d="M88.3116 26.9948H90.1672C90.5054 26.9875 90.8333 27.1114 91.083 27.3407C91.1994 27.4548 91.292 27.5912 91.3552 27.7418C91.4184 27.8924 91.451 28.0542 91.451 28.2176C91.451 28.381 91.4184 28.5428 91.3552 28.6934C91.292 28.844 91.1994 28.9804 91.083 29.0945C90.8328 29.3229 90.5052 29.4466 90.1672 29.4404H88.7626V30.2152H88.3116V26.9948ZM88.7626 27.4134V29.0011H90.1603C90.383 29.0131 90.6016 28.9374 90.7697 28.7901C90.8482 28.7162 90.9096 28.6258 90.9495 28.5253C90.9893 28.4249 91.0067 28.3169 91.0003 28.209C91.0053 28.1012 90.9873 27.9936 90.9475 27.8933C90.9077 27.7931 90.8471 27.7026 90.7697 27.6278C90.602 27.4796 90.3835 27.4027 90.1603 27.4134H88.7626Z" fill="black"/>
<path d="M96.4638 26.9948H97.2108L98.5879 29.6964H98.6154L99.9511 26.9948H100.688V30.1945H100.227V27.4998H100.14L98.8047 30.1945H98.3606L96.9836 27.4998H96.8975V30.1945H96.4534L96.4638 26.9948Z" fill="black"/>
<path d="M105.824 26.9948H108.633V27.4064H106.272V28.3473H108.392V28.759H106.272V29.7759H108.72V30.1945H105.824V26.9948Z" fill="black"/>
<path d="M113.815 26.9948H114.31L116.624 29.5995V26.9948H117.068V30.1945H116.565L114.255 27.5898V30.1979H113.815V26.9948Z" fill="black"/>
<path d="M122.056 26.9948H125.334V27.4134H123.922V30.1806H123.468V27.4134H122.056V26.9948Z" fill="black"/>
<defs>
<linearGradient id="paint0_linear_0_118" x1="20.9493" y1="35.0346" x2="-0.94683" y2="17.0947" gradientUnits="userSpaceOnUse">
<stop stop-color="#0D477F"/>
<stop offset="0.39" stop-color="#215690"/>
</linearGradient>
<linearGradient id="paint1_linear_0_118" x1="-4.95533" y1="29.3095" x2="10.3376" y2="16.2922" gradientUnits="userSpaceOnUse">
<stop stop-color="#0D477F"/>
<stop offset="0.39" stop-color="#0B61AC"/>
</linearGradient>
<linearGradient id="paint2_linear_0_118" x1="24.038" y1="33.7731" x2="13.0922" y2="13.7439" gradientUnits="userSpaceOnUse">
<stop stop-color="#E84434"/>
<stop offset="0.62" stop-color="#DA1E2D"/>
<stop offset="0.85" stop-color="#D61C2C"/>
<stop offset="1" stop-color="#CF192B"/>
</linearGradient>
</defs>
</svg>
