<svg width="132" height="123" viewBox="0 0 132 123" fill="none" xmlns="http://www.w3.org/2000/svg">
<g clip-path="url(#clip0_0_67)">
<path d="M7.90322 110.056H6.6382L2.04573 99.6761C1.86204 99.2465 1.68669 98.9088 1.51134 98.6544C1.33599 98.4 1.13559 98.2165 0.905968 98.0997C0.68052 97.983 0.375747 97.9246 0 97.9246V97.1865H6.01613V97.9246C5.79486 97.9246 5.58611 97.9413 5.38571 97.9746C5.18531 98.008 5.01831 98.0747 4.88889 98.179C4.75946 98.2832 4.69266 98.45 4.69266 98.6836C4.69266 98.9963 4.78451 99.3633 4.96404 99.7928L7.2227 105.043L7.96167 106.986H8.09944L8.82171 105.043L11.0386 99.4634C11.0762 99.3716 11.1179 99.2507 11.1555 99.0964C11.1931 98.9421 11.214 98.7795 11.214 98.6085C11.214 98.3499 11.1138 98.1706 10.9134 98.0747C10.713 97.9788 10.3957 97.9288 9.96983 97.9288V97.1906H14.27V97.9288C13.9861 97.9288 13.744 97.9621 13.5519 98.0247C13.3599 98.0872 13.1804 98.2165 13.0176 98.4042C12.8547 98.5918 12.6836 98.8754 12.4999 99.2507C12.3162 99.626 12.0907 100.131 11.8193 100.764L7.90739 110.06L7.90322 110.056Z" fill="white"/>
<path d="M30.1391 108.784C29.8635 108.492 29.588 108.033 29.3124 107.412L24.9538 97.0864H23.3756L19.1923 107.099C18.946 107.683 18.7289 108.129 18.541 108.433C18.3532 108.738 18.1528 108.946 17.9357 109.055C17.7227 109.163 17.4388 109.222 17.0881 109.222V109.96H21.4092V109.222C20.9333 109.222 20.5909 109.176 20.3905 109.092C20.186 109.009 20.0858 108.817 20.0858 108.521C20.0858 108.35 20.115 108.175 20.1734 107.983C20.2319 107.795 20.2903 107.62 20.3404 107.449L21.0251 105.798H25.6886L26.2397 107.178C26.3566 107.449 26.4442 107.712 26.511 107.966C26.5737 108.217 26.6071 108.417 26.6071 108.559C26.6071 108.767 26.5444 108.917 26.415 109.005C26.2856 109.097 26.1228 109.155 25.9349 109.18C25.747 109.205 25.5717 109.222 25.4005 109.222V109.96H31.2622V109.222C30.7946 109.222 30.4188 109.076 30.1391 108.784ZM21.3508 104.864L23.3965 99.8095H23.4758L25.3504 104.864H21.3508Z" fill="white"/>
<path d="M43.4823 109.96H37.2741V109.222C37.7668 109.222 38.1383 109.184 38.393 109.105C38.6477 109.026 38.8188 108.859 38.9107 108.6C39.0025 108.342 39.0485 107.937 39.0485 107.395V99.4217C39.0485 99.0339 39.0109 98.7336 38.9316 98.5168C38.8522 98.3041 38.6894 98.1498 38.4347 98.058C38.1801 97.9663 37.796 97.9204 37.2783 97.9204V97.1823H43.0397C43.9749 97.1823 44.8266 97.2782 45.599 97.4742C46.3714 97.6702 46.9851 98.0038 47.4402 98.4751C47.8952 98.9463 48.1207 99.601 48.1207 100.431C48.1207 101.144 47.9662 101.724 47.6614 102.17C47.3567 102.616 46.9684 102.962 46.4924 103.208C46.0207 103.454 45.5113 103.642 44.9644 103.771V103.867C45.1731 103.996 45.4028 104.209 45.6574 104.509C45.9121 104.805 46.2461 105.252 46.6594 105.84C47.0728 106.432 47.6322 107.224 48.3336 108.221C48.6467 108.65 48.9515 108.921 49.2563 109.038C49.561 109.155 49.9326 109.213 50.3752 109.213V109.951H46.4048C45.9372 109.159 45.5489 108.509 45.2358 107.987C44.9227 107.47 44.6596 107.036 44.4384 106.695C44.2171 106.353 44.0209 106.04 43.8455 105.76C43.6702 105.481 43.4865 105.193 43.2902 104.897C43.1065 104.601 42.9354 104.413 42.7642 104.343C42.5972 104.272 42.3425 104.234 42.0043 104.234H41.5576V107.403C41.5576 107.921 41.6036 108.313 41.6954 108.579C41.7873 108.846 41.9668 109.017 42.2423 109.092C42.5137 109.172 42.9312 109.209 43.4865 109.209V109.947L43.4823 109.96ZM41.5535 103.367L42.2924 103.388C42.9688 103.35 43.5407 103.237 44.0167 103.058C44.4885 102.875 44.8517 102.587 45.1064 102.182C45.361 101.782 45.4863 101.227 45.4863 100.531C45.4863 99.7803 45.2734 99.1798 44.8433 98.7336C44.4133 98.2874 43.7203 98.0622 42.76 98.0622C42.5513 98.0622 42.3467 98.0622 42.1463 98.0706C41.9459 98.0789 41.7455 98.0914 41.5535 98.1206V103.371V103.367Z" fill="white"/>
<path d="M64.0148 109.96H57.6104V109.222C58.1824 109.222 58.604 109.184 58.8754 109.113C59.1468 109.042 59.3263 108.871 59.4098 108.6C59.4933 108.329 59.5351 107.908 59.5351 107.337V104.906L56.9675 100.627C56.5917 99.993 56.2744 99.4968 56.0114 99.1381C55.7525 98.7837 55.5187 98.5168 55.31 98.3416C55.1012 98.1665 54.9092 98.0539 54.7255 97.9997C54.5418 97.9496 54.3372 97.9204 54.1034 97.9204V97.1823H59.844V97.9204C59.3263 97.9204 58.9923 97.958 58.842 98.0372C58.6917 98.1164 58.6166 98.2249 58.6166 98.3666C58.6166 98.6002 58.7126 98.8837 58.9088 99.2215L60.583 102.12L61.3804 103.675H61.4973L63.9689 99.1048C64.019 99.013 64.0649 98.9046 64.1067 98.7753C64.1484 98.646 64.1651 98.5293 64.1651 98.425C64.1651 98.2707 64.0983 98.1456 63.9605 98.0539C63.8228 97.9621 63.5096 97.9163 63.017 97.9163V97.1781H67.359V97.9163C66.9957 97.9413 66.6868 97.9997 66.4363 98.0831C66.1816 98.1665 65.9478 98.3291 65.7265 98.571C65.5053 98.8128 65.2381 99.184 64.9291 99.6886L62.0275 104.88V107.328C62.0275 107.9 62.0818 108.317 62.1945 108.584C62.3031 108.851 62.5076 109.021 62.7999 109.097C63.0921 109.176 63.4971 109.213 64.0148 109.213V109.951V109.96Z" fill="white"/>
<path d="M83.5954 109.96H73.0453V109.222C73.5755 109.222 73.9721 109.176 74.2309 109.084C74.4898 108.992 74.661 108.817 74.7361 108.559C74.8154 108.3 74.853 107.916 74.853 107.412V99.8095C74.853 99.3174 74.8154 98.9338 74.7361 98.6627C74.6568 98.3916 74.494 98.1998 74.2393 98.0914C73.9846 97.983 73.5922 97.9246 73.062 97.9246V97.1865H79.2534V97.9246C78.7065 97.9246 78.3015 97.9788 78.026 98.0914C77.7546 98.204 77.5709 98.3916 77.4791 98.6627C77.3872 98.9338 77.3413 99.3258 77.3413 99.8304V107.8C77.3413 108.267 77.4415 108.567 77.6419 108.705C77.8423 108.842 78.2306 108.909 78.7984 108.909H79.888C80.4725 108.909 80.9485 108.863 81.32 108.771C81.6874 108.68 81.9922 108.521 82.226 108.296C82.4598 108.071 82.656 107.766 82.8105 107.391C82.965 107.016 83.1278 106.54 83.299 105.973H84.1549L83.5912 109.96H83.5954Z" fill="white"/>
<path d="M96.4251 109.96H90.2921V109.222C90.864 109.222 91.2773 109.172 91.5362 109.076C91.795 108.98 91.962 108.792 92.033 108.513C92.104 108.233 92.1416 107.816 92.1416 107.257V99.9263C92.1416 99.4092 92.104 99.0047 92.033 98.7211C91.962 98.4375 91.795 98.2332 91.5362 98.1081C91.2773 97.9871 90.8598 97.9246 90.2921 97.9246V97.1865H96.4627V97.9246C95.8782 97.9246 95.4523 97.9871 95.1893 98.1081C94.9221 98.2332 94.7593 98.4375 94.7008 98.7294C94.6424 99.0213 94.6131 99.4175 94.6131 99.9263V107.257C94.6131 107.8 94.6465 108.217 94.7217 108.5C94.7927 108.784 94.9555 108.976 95.2102 109.076C95.4648 109.172 95.8698 109.222 96.4251 109.222V109.96Z" fill="white"/>
<path d="M109.288 109.96H102.942V109.222C103.447 109.222 103.836 109.18 104.099 109.097C104.366 109.013 104.545 108.851 104.646 108.609C104.746 108.367 104.792 108.008 104.792 107.529V99.5551C104.792 99.1006 104.742 98.7586 104.637 98.5251C104.533 98.2916 104.349 98.1373 104.082 98.058C103.815 97.9788 103.435 97.9413 102.942 97.9413V97.1823H113.668L113.805 100.623H112.929C112.849 100.156 112.762 99.772 112.666 99.4676C112.57 99.1631 112.424 98.9254 112.227 98.7503C112.031 98.5751 111.751 98.4542 111.38 98.3791C111.008 98.3083 110.507 98.2707 109.873 98.2707H107.263V102.975H109.054C109.614 102.975 110.048 102.929 110.369 102.837C110.687 102.745 110.916 102.57 111.05 102.303C111.188 102.036 111.255 101.644 111.255 101.127H112.073V105.656H111.255C111.255 105.122 111.188 104.739 111.05 104.497C110.912 104.259 110.687 104.096 110.369 104.021C110.052 103.942 109.614 103.905 109.054 103.905H107.263V107.658C107.263 108.1 107.326 108.429 107.447 108.65C107.568 108.871 107.781 109.021 108.077 109.097C108.374 109.176 108.779 109.213 109.284 109.213V109.951L109.288 109.96Z" fill="white"/>
<path d="M130.756 109.96H119.876V109.222C120.356 109.222 120.728 109.184 120.995 109.113C121.262 109.042 121.45 108.888 121.558 108.655C121.667 108.421 121.725 108.058 121.725 107.566V99.7094C121.725 99.2174 121.684 98.8462 121.6 98.5918C121.517 98.3374 121.341 98.1665 121.074 98.0747C120.807 97.983 120.41 97.9371 119.876 97.9371V97.1781H130.56L130.677 100.581H129.821C129.729 99.9722 129.595 99.4968 129.42 99.1631C129.245 98.8295 128.965 98.5918 128.585 98.4626C128.205 98.3333 127.633 98.2666 126.881 98.2666H124.197V102.912H126.143C126.765 102.912 127.228 102.875 127.533 102.795C127.838 102.716 128.038 102.554 128.138 102.299C128.234 102.045 128.284 101.665 128.284 101.161H129.082V105.652H128.284C128.284 105.106 128.234 104.71 128.138 104.455C128.042 104.201 127.842 104.038 127.533 103.967C127.228 103.896 126.765 103.859 126.143 103.859H124.197V108.876H126.573C127.261 108.876 127.817 108.838 128.247 108.767C128.677 108.696 129.019 108.563 129.278 108.367C129.537 108.175 129.75 107.9 129.921 107.549C130.088 107.199 130.259 106.745 130.426 106.19H131.244L130.756 109.943V109.96Z" fill="white"/>
<path d="M17.3094 122.875V122.387L20.7371 118.313H17.5891V117.8H21.4802V118.296L18.0693 122.362H21.4635V122.875H17.3136H17.3094ZM19.3051 117.412L18.3198 116.44V116.369H18.8792L19.4136 117.02H19.4512L20.0023 116.369H20.5534V116.44L19.5597 117.412H19.3051Z" fill="white"/>
<path d="M24.9455 118.304V122.37H25.6385V122.875H23.6721V122.37H24.3693V118.304H23.6721V117.8H25.6385V118.304H24.9455Z" fill="white"/>
<path d="M31.521 117.8H32.1515L30.3562 122.875H29.3834L27.5966 117.8H28.227L29.8677 122.604L31.521 117.8Z" fill="white"/>
<path d="M36.197 123C35.3912 123 34.7775 122.762 34.3558 122.283C33.9342 121.803 33.7254 121.161 33.7254 120.348C33.7254 119.814 33.8173 119.347 34.001 118.955C34.1847 118.563 34.456 118.254 34.8234 118.033C35.1866 117.812 35.6459 117.704 36.2012 117.704C37.0069 117.704 37.6165 117.942 38.034 118.421C38.4473 118.901 38.656 119.539 38.656 120.348C38.656 120.869 38.5642 121.332 38.3805 121.732C38.1968 122.133 37.9254 122.441 37.558 122.666C37.1948 122.887 36.7397 123 36.2012 123H36.197ZM36.1886 122.441C36.6103 122.441 36.961 122.354 37.2407 122.178C37.5204 122.003 37.7292 121.761 37.8711 121.445C38.0131 121.128 38.0841 120.765 38.0841 120.348C38.0841 119.931 38.0173 119.568 37.8795 119.251C37.7459 118.934 37.533 118.688 37.2533 118.513C36.9694 118.338 36.6145 118.246 36.1886 118.246C35.5707 118.246 35.099 118.434 34.7775 118.805C34.456 119.176 34.2932 119.693 34.2932 120.348C34.2932 120.756 34.3642 121.119 34.5019 121.432C34.6397 121.749 34.8485 121.995 35.1282 122.17C35.4079 122.345 35.7628 122.437 36.1886 122.437V122.441Z" fill="white"/>
<path d="M44.0042 117.8V118.304H42.3801V122.875H41.7998V118.304H40.1674V117.8H44.0042Z" fill="white"/>
<path d="M52.7006 117.8H53.331L51.5358 122.875H50.563L48.7762 117.8H49.4066L51.0473 122.604L52.7006 117.8Z" fill="white"/>
<path d="M58.675 122.875V117.8H60.3534C60.7876 117.8 61.1508 117.841 61.4514 117.929C61.7478 118.017 61.9774 118.167 62.1361 118.375C62.2947 118.584 62.374 118.876 62.374 119.251C62.374 119.493 62.3281 119.714 62.2446 119.914C62.1569 120.114 62.0233 120.277 61.848 120.398C61.6726 120.519 61.4514 120.577 61.1842 120.577C61.4013 120.577 61.5683 120.619 61.6893 120.698C61.8104 120.777 61.8981 120.886 61.9524 121.019C62.0066 121.153 62.0442 121.294 62.0609 121.445C62.0776 121.595 62.0901 121.741 62.0985 121.887C62.1027 122.033 62.1194 122.158 62.1402 122.266C62.1611 122.374 62.207 122.45 62.278 122.491C62.349 122.533 62.4575 122.529 62.6037 122.475V122.854C62.5494 122.904 62.4659 122.937 62.3573 122.958C62.2488 122.979 62.1319 122.971 62.0108 122.937C61.8897 122.9 61.7895 122.821 61.7102 122.696C61.6309 122.57 61.5892 122.383 61.5892 122.137C61.5892 121.837 61.5766 121.59 61.5516 121.403C61.5265 121.215 61.4764 121.069 61.3929 120.965C61.3094 120.861 61.1883 120.79 61.0172 120.748C60.8502 120.706 60.6206 120.686 60.3408 120.686C60.0611 120.686 59.6979 120.686 59.2679 120.694V122.883H58.6792L58.675 122.875ZM59.2637 120.243H60.4452C60.7625 120.243 61.0255 120.218 61.2343 120.164C61.443 120.11 61.5975 120.014 61.6977 119.881C61.7979 119.747 61.8522 119.547 61.8522 119.289C61.8522 118.98 61.7895 118.759 61.6643 118.621C61.539 118.484 61.3554 118.396 61.1174 118.354C60.8794 118.317 60.5872 118.296 60.2365 118.296H59.2637V120.243Z" fill="white"/>
<path d="M68.1063 117.8L66.3653 121.015V122.875H65.7766V121.007L64.0565 117.8H64.7037L66.0856 120.485L67.4633 117.8H68.1063Z" fill="white"/>
<path d="M73.5922 117.8V118.304H71.9681V122.875H71.392V118.304H69.7596V117.8H73.5922Z" fill="white"/>
<path d="M75.496 122.875V117.8H76.498L78.1513 122.612H78.1679L79.792 117.8H80.794V122.875H80.2095L80.2346 118.096H80.2179L78.5771 122.875H77.7212L76.0805 118.096H76.0638L76.093 122.875H75.5043H75.496Z" fill="white"/>
<path d="M85.1694 123C84.4888 123 83.967 122.8 83.6037 122.399C83.2405 121.999 83.0568 121.436 83.0568 120.711V117.8H83.6538V120.711C83.6538 121.011 83.6914 121.269 83.7707 121.49C83.8501 121.711 83.9544 121.891 84.0922 122.037C84.2258 122.183 84.3886 122.287 84.5723 122.354C84.756 122.42 84.9564 122.454 85.1735 122.454C85.4867 122.454 85.7539 122.395 85.9835 122.279C86.2089 122.162 86.3843 121.974 86.5095 121.716C86.6348 121.457 86.6974 121.123 86.6974 120.715V117.804H87.2944V120.715C87.2944 121.453 87.1149 122.02 86.7558 122.412C86.3968 122.804 85.8707 123.004 85.1735 123.004L85.1694 123Z" fill="white"/>
<path d="M96.3666 117.8H96.9971L95.2018 122.875H94.2291L92.4422 117.8H93.0726L94.7134 122.604L96.3666 117.8Z" fill="white"/>
<path d="M100.755 117.8H99.7985L98.0116 122.875H98.6253L99.1722 121.29H101.406L101.953 122.875H102.571L100.755 117.8ZM99.3434 120.802L100.295 118.054L101.239 120.802H99.3434Z" fill="white"/>
<path d="M104.541 122.875V117.8H106.22C106.654 117.8 107.017 117.841 107.318 117.929C107.614 118.017 107.844 118.167 108.002 118.375C108.161 118.584 108.24 118.876 108.24 119.251C108.24 119.493 108.199 119.714 108.111 119.914C108.023 120.114 107.89 120.277 107.714 120.398C107.539 120.519 107.313 120.577 107.05 120.577C107.267 120.577 107.434 120.619 107.556 120.698C107.677 120.777 107.764 120.886 107.819 121.019C107.873 121.153 107.91 121.294 107.927 121.445C107.944 121.595 107.956 121.741 107.965 121.887C107.969 122.033 107.986 122.158 108.006 122.266C108.027 122.374 108.073 122.45 108.148 122.491C108.219 122.533 108.328 122.529 108.474 122.475V122.854C108.42 122.904 108.336 122.937 108.228 122.958C108.115 122.979 108.002 122.971 107.881 122.937C107.76 122.9 107.66 122.821 107.581 122.696C107.501 122.57 107.46 122.383 107.46 122.137C107.46 121.837 107.447 121.59 107.422 121.403C107.397 121.215 107.347 121.069 107.263 120.965C107.184 120.861 107.059 120.79 106.888 120.748C106.721 120.706 106.495 120.686 106.211 120.686C105.927 120.686 105.568 120.686 105.138 120.694V122.883H104.55L104.541 122.875ZM105.13 120.243H106.311C106.629 120.243 106.892 120.218 107.1 120.164C107.309 120.11 107.464 120.014 107.564 119.881C107.664 119.747 107.718 119.547 107.718 119.289C107.718 118.98 107.656 118.759 107.531 118.621C107.405 118.484 107.222 118.396 106.984 118.354C106.746 118.317 106.453 118.296 106.103 118.296H105.13V120.243Z" fill="white"/>
<path d="M112.62 123C111.939 123 111.417 122.8 111.054 122.399C110.691 121.999 110.507 121.436 110.507 120.711V117.8H111.104V120.711C111.104 121.011 111.142 121.269 111.221 121.49C111.301 121.711 111.405 121.891 111.543 122.037C111.676 122.183 111.839 122.287 112.023 122.354C112.206 122.42 112.407 122.454 112.624 122.454C112.937 122.454 113.204 122.395 113.43 122.279C113.655 122.162 113.831 121.974 113.956 121.716C114.081 121.457 114.144 121.123 114.144 120.715V117.804H114.741V120.715C114.741 121.453 114.561 122.02 114.202 122.412C113.843 122.804 113.317 123.004 112.62 123.004V123ZM112.628 117.258C112.365 117.258 112.161 117.183 112.019 117.037C111.877 116.891 111.806 116.69 111.806 116.444C111.806 116.198 111.877 115.994 112.014 115.844C112.152 115.698 112.353 115.623 112.62 115.623C112.887 115.623 113.1 115.698 113.242 115.844C113.388 115.99 113.459 116.19 113.459 116.444C113.459 116.678 113.388 116.874 113.242 117.024C113.096 117.178 112.891 117.253 112.628 117.253V117.258ZM112.62 116.899C112.77 116.899 112.887 116.853 112.966 116.766C113.046 116.674 113.087 116.565 113.087 116.44C113.087 116.315 113.046 116.194 112.966 116.102C112.887 116.011 112.77 115.965 112.62 115.965C112.469 115.965 112.353 116.011 112.273 116.102C112.194 116.194 112.152 116.307 112.152 116.44C112.152 116.574 112.194 116.682 112.282 116.77C112.369 116.857 112.482 116.899 112.62 116.899Z" fill="white"/>
<path fill-rule="evenodd" clip-rule="evenodd" d="M53.5189 9.09937V51.2726H52.279V7.98176C52.6714 8.37376 53.0973 8.73656 53.5189 9.09937ZM63.4178 13.8159V51.2726H62.2071V13.5448C62.5995 13.6365 63.0253 13.7241 63.4178 13.8159ZM58.483 12.2729V51.2726H57.243V11.6682C57.6355 11.8809 58.0613 12.0894 58.483 12.2729ZM42.3801 16.0845C42.7726 16.2971 43.1984 16.5056 43.5909 16.6891V51.2768H42.3801V16.0845ZM48.5549 2.87327V51.2768H47.3149V0C47.6782 0.996677 48.0706 1.96416 48.5549 2.87327Z" fill="white"/>
<path fill-rule="evenodd" clip-rule="evenodd" d="M43.5909 43.1115V74.976H41.6537V43.7454C42.2883 43.5327 42.9563 43.3242 43.5909 43.1115ZM33.6962 45.7095V74.976H31.7298V46.0432C32.3936 45.9222 33.0324 45.8305 33.6962 45.7095ZM38.6602 44.5919V74.976H36.6938V45.0757C37.3576 44.9255 37.9964 44.7421 38.6602 44.5919ZM63.4178 32.711V74.976H61.4806V34.1623C62.1444 33.7077 62.7832 33.224 63.4178 32.711ZM58.483 36.1556V74.9718H56.5166V37.3316C57.1804 36.9688 57.8191 36.5476 58.483 36.1515V36.1556ZM53.5189 38.9705V74.976H51.5525V39.938C52.2205 39.6336 52.8551 39.3041 53.5189 38.9705ZM48.5549 41.2683V74.976H46.5885V42.0523C47.2523 41.7812 47.9203 41.5393 48.5549 41.2641V41.2683Z" fill="white"/>
<path fill-rule="evenodd" clip-rule="evenodd" d="M80.5769 9.09937V51.2726H81.8169V7.98176C81.4244 8.37376 80.9986 8.73656 80.5769 9.09937ZM70.6822 13.8159V51.2726H71.893V13.5448C71.5005 13.6365 71.0747 13.7241 70.6822 13.8159ZM75.6129 12.2729V51.2726H76.8528V11.6682C76.4604 11.8809 76.0345 12.0894 75.6129 12.2729ZM91.7157 16.0845C91.3233 16.2971 90.8974 16.5056 90.505 16.6891V51.2768H91.7157V16.0845ZM85.5409 2.87327V51.2768H86.7517V0C86.4177 0.996677 86.0252 1.96416 85.5409 2.87327Z" fill="white"/>
<path fill-rule="evenodd" clip-rule="evenodd" d="M90.505 43.1115V74.976H92.4422V43.7454C91.8076 43.5327 91.1396 43.3242 90.505 43.1115ZM100.404 45.7095V74.976H102.37V46.0432C101.706 45.9222 101.068 45.8305 100.404 45.7095ZM95.4398 44.5919V74.976H97.4062V45.0757C96.7382 44.9255 96.1036 44.7421 95.4398 44.5919ZM70.6822 32.711V74.976H72.6194V34.1623C71.9514 33.7077 71.3168 33.224 70.6822 32.711ZM75.6129 36.1556V74.9718H77.5793V37.3316C76.9155 36.9688 76.2767 36.5476 75.6129 36.1515V36.1556ZM80.5769 38.9705V74.976H82.5433V39.938C81.8753 39.6336 81.2115 39.3041 80.5769 38.9705ZM85.5409 41.2683V74.976H87.5073V42.0523C86.8394 41.7812 86.1755 41.5393 85.5409 41.2641V41.2683Z" fill="white"/>
<path fill-rule="evenodd" clip-rule="evenodd" d="M73.3459 71.4063V80.9894H70.6822V72.1903C71.559 71.9484 72.4691 71.6774 73.3459 71.4063ZM0.221283 80.9894H33.6962V57.7406C32.786 57.0775 31.9093 56.3811 31.0326 55.6847V78.4206L0.221283 80.9894ZM132 80.9894L103.067 78.4206V55.6847C102.191 56.3811 101.31 57.0733 100.404 57.7406V80.9894H132.004H132ZM60.7542 71.4063V80.9894H63.4178V72.1903C62.541 71.9484 61.6309 71.6774 60.7542 71.4063ZM67.05 2.0851L68.3818 80.9894H65.7182V79.4464L67.05 2.08093V2.0851ZM35.9966 59.4045V80.9894H38.6602V61.1893C37.7501 60.5846 36.8441 60.0091 35.9966 59.4045ZM40.9272 62.5822V80.9936H43.5909V64.1251C42.7141 63.6122 41.804 63.0993 40.9272 62.5822ZM45.8913 65.3303V80.9894H48.5549V66.6314C47.6489 66.2061 46.768 65.7849 45.8913 65.3303ZM50.8553 67.6907V80.9936H53.5189V68.8083C52.6088 68.4455 51.7321 68.0535 50.8553 67.6907ZM55.8193 69.684V80.9894H58.483V70.6515C57.577 70.3179 56.6961 70.0176 55.8193 69.684ZM98.1034 59.4045V80.9894H95.4398V61.1893C96.35 60.5846 97.2559 60.0091 98.1034 59.4045ZM93.1686 62.5822V80.9936H90.505V64.1251C91.3817 63.6122 92.2919 63.0993 93.1686 62.5822ZM88.2046 65.3303V80.9894H85.541V66.6314C86.4511 66.2061 87.3278 65.7849 88.2046 65.3303ZM83.2405 67.6907V80.9936H80.5769V68.8083C81.4871 68.4455 82.3638 68.0535 83.2405 67.6907ZM78.2765 69.684V80.9894H75.6129V70.6515C76.523 70.3179 77.3998 70.0176 78.2765 69.684Z" fill="white"/>
</g>
<defs>
<clipPath id="clip0_0_67">
<rect width="132" height="123" fill="white"/>
</clipPath>
</defs>
</svg>
