<svg width="640" height="193" viewBox="0 0 640 193" fill="none" xmlns="http://www.w3.org/2000/svg">
<path d="M569.805 193V0H638.959V33.0857H596.196V79.13H634.336V111.113H596.196V161.017H639.73V193H569.805Z" fill="white"/>
<path d="M488.352 193V0H558.662V33.0857H514.742V81.3357H552.883V113.319H514.742V193H488.352Z" fill="white"/>
<path d="M443.392 193V0H469.783V193H443.392Z" fill="white"/>
<path d="M363.82 193V0H390.21V161.017H430.277V193H363.82Z" fill="white"/>
<path d="M325.991 193H297.867V128.759L269.358 0H295.556L307.499 58.7271L311.544 92.64H312.314L316.36 58.7271L328.303 0H354.5L325.991 128.759V193Z" fill="white"/>
<path d="M187.933 0H239.172C247.262 3.86 254.133 11.0286 259.783 21.5057C265.562 31.799 268.452 44.4819 268.452 59.5543C268.452 84.1848 261.645 102.29 248.033 113.87L267.489 193H240.52L224.147 122.693H213.938V193H187.933V0ZM213.938 33.0857V91.8129H230.504C232.687 91.0776 235.063 87.9529 237.631 82.4386C240.328 76.7405 241.676 70.1233 241.676 62.5871C241.676 55.051 240.52 48.4338 238.209 42.7357C236.026 37.0376 233.843 33.821 231.659 33.0857H213.938Z" fill="white"/>
<path d="M150.902 193L146.857 162.396H116.422L112.377 193H86.1789L112.184 0H152.058L176.715 193H150.902ZM131.254 35.8429L123.742 100.084L119.504 132.894H143.583L139.152 100.084L131.64 35.8429H131.254Z" fill="white"/>
<path d="M90.9212 0L63.5678 193H27.3534L0 0H27.7387L38.3333 89.3314L44.8827 147.231H46.0385L52.5879 89.3314L63.1825 0H90.9212Z" fill="white"/>
</svg>
